{"title":"Battleground 2012 BRrip Xvid LKRG.","uid":7039074,"size":1255853904,"categoryP":"video","categoryS":"movies","magnet":"?xt=urn:btih:bd4fd8d61812a92e691567dfdd79bdf2efb91835&amp;dn=Battleground+2012+BRrip+Xvid+LKRG.&amp;tr=udp%3A%2F%2Ftracker.openbittorrent.com%3A80&amp;tr=udp%3A%2F%2Fopen.demonii.com%3A1337&amp;tr=udp%3A%2F%2Ftracker.coppersurfer.tk%3A6969&amp;tr=udp%3A%2F%2Fexodus.desync.com%3A6969","seeders":0,"leechers":0,"uploader":"moviesp2p","files":2,"time":1329476744,"description":"[img]http://i.imgur.com/BOBAq.png[/img]\n[pre]Skeleton Lakes plot synopsis: Six ruthless bank robbers encounter someone far worse. Six bank robbers become stranded in a off the grid forest when their vehicle goes missing during the planning of their escape from the police. Now stranded and on a time crunch to make their flight headed out of the country they try to walk out of the forest.\n\n[img]http://i.imgur.com/xvfvU.png[/img]\n Encoded By .......: El Jefe mas Cabron                              \n Runtime ..........: 1h 29mn                                                                                    \n File Size ........: 1.17 GB\n Resolution .......: 1248x512      \n IMDb URL .........: http://www.imdb.com/title/tt1754506/\n Genre ............: Action/Horror/Thriller  \n Source ...........: BluRay.x264-HD4U Gracias\n Language .........: English\n Subtitles ........: None\nGeneral\nComplete name                    : Battleground 2012 BRrip Xvid LKRG\\Battleground-LKRG.avi\nFormat                           : AVI\nFormat/Info                      : Audio Video Interleave\nFile size                        : 1.17 GiB\nDuration                         : 1h 29mn\nOverall bit rate                 : 1 880 Kbps\nWriting application              : VirtualDubMod 1.5.10.2 (build 2540/release)\nWriting library                  : VirtualDubMod build 2540/release\n\nVideo\nID                               : 0\nFormat                           : MPEG-4 Visual\nFormat profile                   : Advanced Simple@L5\nFormat settings, BVOP            : Yes\nFormat settings, QPel            : No\nFormat settings, GMC             : No warppoints\nFormat settings, Matrix          : Default (H.263)\nMuxing mode                      : Packed bitstream\nCodec ID                         : XVID\nCodec ID/Hint                    : XviD\nDuration                         : 1h 29mn\nBit rate                         : 1 647 Kbps\nWidth                            : 1 248 pixels\nHeight                           : 512 pixels\nDisplay aspect ratio             : 2.40:1\nFrame rate                       : 23.976 fps\nColor space                      : YUV\nChroma subsampling               : 4:2:0\nBit depth                        : 8 bits\nScan type                        : Progressive\nCompression mode                 : Lossy\nBits/(Pixel*Frame)               : 0.108\nStream size                      : 1.02 GiB (88%)\nWriting library                  : XviD 64\n\nAudio\nID                               : 1\nFormat                           : AC-3\nFormat/Info                      : Audio Coding 3\nMode extension                   : CM (complete main)\nCodec ID                         : 2000\nDuration                         : 1h 29mn\nBit rate mode                    : Constant\nBit rate                         : 224 Kbps\nChannel(s)                       : 2 channels\nChannel positions                : Front: L R\nSampling rate                    : 48.0 KHz\nBit depth                        : 16 bits\nCompression mode                 : Lossy\nStream size                      : 143 MiB (12%)\nAlignment                        : Split accross interleaves\nInterleave, duration             : 42 ms (1.00 video frame)\nInterleave, preload duration     : 500 ms","torrent":{"xt":"urn:btih:bd4fd8d61812a92e691567dfdd79bdf2efb91835","amp;dn":"Battleground+2012+BRrip+Xvid+LKRG.","amp;tr":["udp%3A%2F%2Ftracker.openbittorrent.com%3A80","udp%3A%2F%2Fopen.demonii.com%3A1337","udp%3A%2F%2Ftracker.coppersurfer.tk%3A6969","udp%3A%2F%2Fexodus.desync.com%3A6969"],"infoHash":"bd4fd8d61812a92e691567dfdd79bdf2efb91835","infoHashBuffer":{"type":"Buffer","data":[189,79,216,214,24,18,169,46,105,21,103,223,221,121,189,242,239,185,24,53]},"announce":[],"urlList":[]}}